PathFileType	4	(X/Y/Z)	C:/Users/opensim2020/Desktop/walking_exp_matlab/subject02_walking12_straight_03.trc	
DataRate	CameraRate	NumFrames	NumMarkers	Units	OrigDataRate	OrigDataStartFrame	OrigNumFrames	
100.00	100.00	7	42	mm	100.00	1589	127	
Frame#	Time	LFHD			RFHD			LBHD			RBHD			C7			T10			CLAV			STRN			RBAK			LSHO			LUPA			LELB			LFRM			LWRA			LWRB			LFIN			RSHO			RUPA			RELB			RFRM			RWRA			RWRB			RFIN			LASI			RASI			LPSI			RPSI			LTHI			LKNE			LTIB			LANK			LHEE			LTOE			RTHI			RKNE			RTIB			RANK			RHEE			RTOE			*39			*40			*41			
		X1	Y1	Z1	X2	Y2	Z2	X3	Y3	Z3	X4	Y4	Z4	X5	Y5	Z5	X6	Y6	Z6	X7	Y7	Z7	X8	Y8	Z8	X9	Y9	Z9	X10	Y10	Z10	X11	Y11	Z11	X12	Y12	Z12	X13	Y13	Z13	X14	Y14	Z14	X15	Y15	Z15	X16	Y16	Z16	X17	Y17	Z17	X18	Y18	Z18	X19	Y19	Z19	X20	Y20	Z20	X21	Y21	Z21	X22	Y22	Z22	X23	Y23	Z23	X24	Y24	Z24	X25	Y25	Z25	X26	Y26	Z26	X27	Y27	Z27	X28	Y28	Z28	X29	Y29	Z29	X30	Y30	Z30	X31	Y31	Z31	X32	Y32	Z32	X33	Y33	Z33	X34	Y34	Z34	X35	Y35	Z35	X36	Y36	Z36	X37	Y37	Z37	X38	Y38	Z38	X39	Y39	Z39	X40	Y40	Z40	X41	Y41	Z41	X42	Y42	Z42	

64	0.630	-1010.11932	220.17151	1711.88696	-874.95044	173.33948	1685.02148	-1064.82336	98.72658	1641.00671	-936.06628	40.77848	1613.45984	-1003.39728	21.10703	1493.81934	-1008.52069	-25.41146	1216.53186	-1005.83466	161.73303	1428.56140	-1007.16333	218.15538	1258.32922	-956.83942	-38.35695	1312.96643	-1174.63196	103.47362	1483.59045	-1286.98352	143.21573	1309.36279	-1333.60730	204.05261	1186.65955	-1342.57898	317.38110	1113.05811	-1301.12744	446.20227	1088.87207	-1336.61865	423.08420	1051.37488	-1340.04846	487.15649	1038.64551	-813.33032	79.77348	1444.19922	-750.37964	8.46760	1261.20813	-737.98865	-11.01610	1118.17273	-712.65302	-20.91628	1000.82721	-717.67908	-4.32338	865.23108	-700.98157	-57.65598	876.02026	-688.83685	-42.17745	806.17950	-1157.70117	197.46141	955.08215	-905.35101	223.55824	951.25415	-1055.67981	-2.77445	1000.54877	-939.51697	1.64994	1002.46637	-1215.34949	62.91395	658.47559	-1199.51428	-10.92572	475.44827	-1200.83411	-160.56848	351.62567	-1182.63220	-280.48196	159.03070	-1128.52087	-316.32358	156.28455	-1194.25781	-184.28162	31.95219	-823.76208	227.42155	659.28015	-870.30231	307.43173	470.02344	-862.09589	304.01099	281.83801	-898.80328	304.72940	91.27726	-955.89404	271.94269	39.66566	-884.28650	457.87067	41.31807	-953.20331	95.21364	1774.59521	-3360.30811	2845.25073	1034.28748			 
65	0.640	-1006.79120	232.52737	1713.22229	-871.64246	185.31099	1686.30847	-1062.51709	111.03831	1642.68726	-933.34320	52.72894	1614.98657	-1000.55225	33.39598	1495.01941	-1005.85950	-12.52208	1217.61169	-1003.16278	174.15436	1430.10791	-1004.40112	231.25816	1260.09546	-953.69031	-25.35508	1313.95679	-1172.19360	115.78770	1484.78442	-1283.70740	152.47839	1308.92554	-1329.54651	211.24881	1185.03271	-1338.06433	324.14844	1110.66443	-1296.25378	452.67410	1085.66992	-1331.93188	429.58163	1048.38208	-1334.86877	493.66782	1035.34216	-810.76746	92.65622	1445.18237	-747.17999	22.65837	1262.02734	-735.50354	4.09354	1118.46875	-710.61005	-4.22127	1001.14960	-716.37506	13.06039	865.52948	-699.43811	-40.39418	875.81592	-687.80164	-24.18539	805.73950	-1153.05505	211.61537	956.13324	-901.84161	237.07738	953.23273	-1053.58203	10.98267	1001.47015	-936.77875	15.35958	1004.40546	-1213.08850	80.29404	657.91577	-1198.82788	10.60626	474.87061	-1198.53247	-141.79280	355.59113	-1180.74524	-266.93140	167.30008	-1125.69971	-301.10382	166.61235	-1193.60828	-182.80704	32.60179	-823.40991	238.97823	659.28094	-869.60162	318.06177	469.73056	-861.69183	309.25647	281.89435	-899.04236	305.63107	91.28268	-955.64795	271.82404	40.10472	-884.12439	458.38513	40.68061	-950.13416	107.28760	1775.89429	-3357.41748	2845.82886	1034.27881			 
66	0.650	-1003.11194	244.76021	1714.93799	-868.13757	197.25114	1687.77942	-1058.78308	123.69171	1644.19885	-930.46082	65.07271	1616.36157	-997.92322	45.65866	1496.33215	-1003.15228	0.39330	1218.92371	-1000.67236	186.52016	1431.92639	-1001.69830	244.04094	1261.98499	-950.66864	-12.45741	1315.27063	-1169.80872	127.81873	1486.25171	-1280.20276	161.74260	1308.67065	-1325.43579	218.15173	1183.52637	-1333.92151	330.38330	1108.10217	-1291.29919	458.61679	1081.88843	-1327.46399	435.40701	1044.96851	-1329.83093	499.41660	1031.40466	-808.14832	105.52607	1446.81982	-744.27600	37.54331	1262.88330	-733.25684	19.99809	1119.09082	-708.60223	12.80153	1001.54047	-715.00055	31.14066	865.82324	-697.68317	-22.20168	875.88611	-686.68195	-6.00341	805.75732	-1148.34131	225.21887	957.20972	-898.10419	250.27274	955.47260	-1051.45642	24.30959	1002.80035	-934.26526	28.92689	1006.27924	-1210.83972	98.30159	656.83954	-1197.98279	32.93656	473.66516	-1195.99158	-121.35434	358.97974	-1179.00378	-250.63708	175.00108	-1122.99841	-283.73047	176.13737	-1192.51526	-179.09795	33.91084	-821.88763	251.27083	660.81580	-868.74701	327.02429	469.53046	-861.44690	312.05750	282.44077	-899.18951	306.19131	91.55372	-955.56989	271.83426	40.21282	-884.68842	459.04922	40.30742	-947.08313	119.26863	1777.56445	-3360.36475	2845.00244	1034.19873			 
67	0.660	-999.68756	256.97238	1716.78870	-865.09857	208.91444	1689.37903	-1055.87048	136.09235	1646.22375	-928.14740	76.56287	1617.89148	-995.45441	57.87278	1497.97571	-1000.37238	13.20489	1220.49463	-998.30353	198.92963	1433.94580	-999.28369	256.74619	1264.06470	-947.92792	0.46078	1316.84668	-1167.48779	139.61436	1487.94678	-1277.18738	170.73865	1308.67896	-1321.21399	224.73923	1182.26245	-1329.27039	336.05786	1105.42151	-1286.57715	463.81891	1077.68408	-1323.00916	440.45795	1041.14880	-1324.80554	504.38675	1026.70642	-805.62720	117.95658	1448.97217	-741.43793	51.70165	1264.16956	-730.84589	36.06078	1119.96619	-706.62299	29.80702	1002.16357	-713.54822	50.10460	866.98242	-695.80695	-3.26877	876.21753	-685.22217	14.08516	806.23212	-1143.80212	238.32396	958.32855	-894.35645	262.91171	957.74908	-1049.37366	37.22660	1004.59924	-931.90295	41.94527	1008.28271	-1208.58398	116.75738	655.36511	-1197.31250	55.80797	472.38388	-1193.82068	-99.80334	361.70840	-1177.24597	-232.75627	182.19781	-1120.02234	-265.16409	185.65681	-1191.00183	-171.96671	36.98626	-819.76379	263.73969	663.27686	-867.66571	334.04266	469.45657	-861.27527	313.91089	282.79794	-899.22485	306.64511	91.77583	-955.50323	271.68945	40.23879	-884.91083	459.29285	40.11630	-943.70447	131.51338	1779.31750	-3357.46631	2845.90503	1034.27246			 
68	0.670	-996.40717	269.08621	1718.88403	-861.90985	220.84019	1690.97534	-1053.83569	148.20062	1648.68835	-925.67676	88.53612	1619.72095	-993.07343	70.09224	1499.83972	-997.52734	25.73813	1222.34814	-996.07111	211.19571	1436.13062	-997.09961	269.24100	1266.22913	-945.18536	13.13151	1318.60010	-1165.40186	151.32835	1489.74597	-1273.76392	179.43295	1308.66199	-1316.94678	231.02774	1181.18591	-1325.25610	341.28482	1102.68335	-1281.79297	468.58875	1072.78809	-1318.85120	444.83832	1036.97302	-1319.85889	508.59671	1021.36365	-803.43451	130.33482	1451.17578	-738.55750	67.36352	1265.93958	-728.26343	52.12288	1121.27600	-704.60980	47.69183	1003.18146	-712.15125	69.89494	868.38489	-693.80621	16.38497	876.80890	-683.95416	34.44814	807.00983	-1139.73218	250.89720	959.74390	-890.77173	275.08661	960.13086	-1047.29712	49.64877	1006.69751	-929.71661	54.33234	1010.57513	-1206.28418	135.55913	653.74695	-1196.68481	79.15685	471.23618	-1192.58032	-76.88049	363.43866	-1174.43372	-214.54765	189.49951	-1116.09900	-245.84077	194.16579	-1191.19666	-160.07829	42.48083	-817.23157	276.58664	665.80292	-866.39203	339.33231	469.76047	-861.36462	315.59473	282.97812	-899.36511	306.71649	92.00147	-955.41077	271.55008	40.19827	-885.07629	459.33173	39.91916	-940.41553	143.45123	1781.15601	-3357.29468	2845.88135	1034.31799			 
69	0.680	-993.36835	281.17987	1721.24451	-859.42181	232.29138	1692.60645	-1051.23914	160.46654	1651.11755	-923.43677	100.40045	1621.73120	-990.74414	82.19150	1501.95276	-994.98816	38.22438	1224.42017	-994.01062	223.37230	1438.41431	-995.14172	281.53262	1268.44006	-942.57782	25.72196	1320.64502	-1163.40637	162.94279	1491.82043	-1270.03406	187.92732	1308.85791	-1312.63574	237.07999	1180.30518	-1320.65845	345.94751	1099.78967	-1277.27527	472.79501	1067.51477	-1314.76245	448.58841	1032.36353	-1315.13757	512.10394	1015.49109	-801.21222	143.17914	1453.59851	-735.77972	82.11375	1267.71179	-725.77557	68.30430	1122.71619	-702.33966	65.92960	1004.75134	-710.65723	90.11864	869.95685	-691.77332	36.73152	877.59082	-682.34003	56.34754	807.97632	-1136.16711	263.28146	960.76965	-887.58881	286.91760	962.45129	-1045.31470	61.69886	1008.96869	-927.71594	66.23599	1012.94971	-1204.27539	154.80562	652.67273	-1196.10388	102.87989	470.54428	-1192.01526	-53.15282	364.80905	-1169.90125	-195.76617	196.23837	-1111.19507	-225.50839	201.05487	-1193.00562	-143.74774	48.87691	-814.92487	288.75708	667.88293	-865.11450	343.94803	469.71445	-861.02576	317.64542	282.86392	-899.40729	306.81638	92.27901	-955.37842	271.72580	40.04380	-885.27069	459.39178	39.84242	-937.31848	155.29727	1783.15674	-3360.32861	2845.24731	1034.24146			 
70	0.690	-990.48718	293.14609	1723.65930	-856.54395	243.97083	1694.35278	-1048.04016	172.85910	1653.41553	-920.89758	112.62864	1623.79492	-988.27673	94.35760	1504.28613	-992.47845	50.30889	1226.76563	-992.18268	235.49739	1440.73914	-993.40033	293.61710	1270.69946	-939.97235	38.14880	1322.93494	-1161.53662	174.25262	1493.84839	-1267.06201	196.26978	1309.48730	-1308.25806	242.96848	1179.61694	-1316.53967	350.22351	1096.90369	-1272.97192	476.45578	1061.75269	-1310.86841	451.64603	1027.45288	-1310.67310	514.87366	1008.94495	-799.32239	155.66183	1456.36902	-733.28235	97.03933	1269.53455	-723.13855	84.83482	1124.47534	-700.10101	84.74670	1006.19006	-709.14246	110.95432	871.82477	-689.63495	57.69799	878.64960	-680.70099	78.41224	809.14960	-1133.38037	275.18716	962.05841	-884.79431	298.35974	964.61871	-1043.21948	73.46124	1011.36218	-925.77594	77.72211	1015.49310	-1202.44360	173.92825	652.87054	-1195.39001	126.74943	470.55896	-1191.28015	-29.32411	366.61874	-1164.64832	-175.33485	202.48763	-1105.39624	-204.09471	205.78587	-1193.73120	-124.02161	55.88171	-813.28680	300.14893	669.68085	-863.84363	348.41455	469.54422	-859.72894	319.85632	282.63297	-899.30945	306.95966	92.35393	-955.38947	271.55450	40.13057	-885.30121	459.37039	39.77656	-934.47449	166.91649	1785.33765	-3360.24634	2845.16528	1034.30554			 
